<?xml version="1.0" encoding="utf-8"?>
<!-- Generator: Adobe Illustrator 16.0.0, SVG Export Plug-In . SVG Version: 6.00 Build 0)  -->
<!DOCTYPE svg PUBLIC "-//W3C//DTD SVG 1.1//EN" "http://www.w3.org/Graphics/SVG/1.1/DTD/svg11.dtd">
<svg version="1.1" id="Layer_1" xmlns="http://www.w3.org/2000/svg" xmlns:xlink="http://www.w3.org/1999/xlink" x="0px" y="0px"
	 width="100px" height="1000px" viewBox="0 0 100 1000" enable-background="new 0 0 100 1000" xml:space="preserve">
<image overflow="visible" width="512" height="512" xlink:href="star.png"  transform="matrix(0.1953 0 0 0.1953 0 100)">
</image>
<image overflow="visible" width="512" height="512" xlink:href="Cherries.png"  transform="matrix(0.1953 0 0 0.1953 0 0)">
</image>
<image overflow="visible" width="256" height="256" xlink:href="7.png"  transform="matrix(0.3906 0 0 0.3906 0 200)">
</image>
<image overflow="visible" width="512" height="512" xlink:href="star.png"  transform="matrix(0.1953 0 0 0.1953 0 400)">
</image>
<image overflow="visible" width="512" height="512" xlink:href="Cherries.png"  transform="matrix(0.1953 0 0 0.1953 0 300)">
</image>
<image overflow="visible" width="256" height="256" xlink:href="7.png"  transform="matrix(0.3906 0 0 0.3906 0 500)">
</image>
<image overflow="visible" width="512" height="512" xlink:href="star.png"  transform="matrix(0.1953 0 0 0.1953 0 700)">
</image>
<image overflow="visible" width="512" height="512" xlink:href="Cherries.png"  transform="matrix(0.1953 0 0 0.1953 0 600)">
</image>
<image overflow="visible" width="256" height="256" xlink:href="7.png"  transform="matrix(0.3906 0 0 0.3906 0 800)">
</image>
<image overflow="visible" width="512" height="512" xlink:href="Cherries.png"  transform="matrix(0.1953 0 0 0.1953 0 900)">
</image>
</svg>
